<svg width="69" height="23" viewBox="0 0 69 23" fill="none" xmlns="http://www.w3.org/2000/svg">
<path d="M9.13423 16.033C8.39731 16.7696 7.41312 17.2072 6.37195 17.261C5.33078 17.3149 4.3066 16.9812 3.49745 16.3246C3.40694 16.2486 3.29131 16.209 3.17315 16.2136C3.055 16.2182 2.9428 16.2667 2.85849 16.3495L0.138882 19.0676C0.0933803 19.1134 0.0576681 19.1679 0.0339115 19.2279C0.0101549 19.2879 -0.0011509 19.3521 0.000679873 19.4166C0.00251065 19.4811 0.0174398 19.5446 0.0445619 19.6031C0.0716839 19.6617 0.110434 19.7142 0.15846 19.7573C1.87313 21.2832 4.10711 22.0965 6.40271 22.0304C8.6983 21.9644 10.8817 21.0241 12.5056 19.4021C14.1295 17.7802 15.071 15.5994 15.1371 13.3066C15.2032 11.0138 14.389 8.78247 12.8612 7.06987C12.8183 7.02155 12.7659 6.98251 12.7073 6.95511C12.6488 6.92772 12.5852 6.91256 12.5205 6.91057C12.4559 6.90857 12.3915 6.91978 12.3313 6.9435C12.2712 6.96722 12.2165 7.00296 12.1706 7.04853L9.45104 9.76664C9.36964 9.85166 9.32275 9.96383 9.31946 10.0814C9.31617 10.199 9.35672 10.3136 9.43324 10.4031C10.0898 11.2121 10.4226 12.2355 10.3674 13.2755C10.3121 14.3154 9.87276 15.2979 9.13423 16.033Z" fill="#FFC222"/>
<path d="M3.5436 2.63101C1.91851 4.25527 0.97776 6.43935 0.914538 8.73473C0.851317 11.0301 1.67043 13.2625 3.20365 14.9736C3.24673 15.0217 3.29915 15.0605 3.35771 15.0878C3.41628 15.115 3.47978 15.1301 3.54436 15.1321C3.60894 15.1341 3.67325 15.1229 3.73339 15.0994C3.79353 15.0758 3.84825 15.0403 3.89423 14.9949L6.60849 12.2768C6.69153 12.1931 6.74029 12.0815 6.74522 11.9638C6.75016 11.846 6.71092 11.7307 6.63519 11.6404C5.97966 10.832 5.64701 9.80991 5.70138 8.77108C5.75575 7.73225 6.19329 6.75032 6.92963 6.01465C7.66597 5.27898 8.64896 4.84166 9.68902 4.78705C10.7291 4.73243 11.7526 5.06438 12.5621 5.71888C12.6532 5.79418 12.7692 5.83281 12.8874 5.82722C13.0056 5.82163 13.1174 5.77222 13.201 5.68865L15.9207 2.97588C15.9664 2.93021 16.0023 2.87569 16.0262 2.81566C16.0501 2.75564 16.0615 2.69137 16.0597 2.6268C16.0578 2.56222 16.0428 2.4987 16.0155 2.44013C15.9883 2.38155 15.9493 2.32915 15.9011 2.28614C14.1871 0.755864 11.9517 -0.0610515 9.65364 0.00308222C7.35561 0.0672159 5.16933 1.00753 3.5436 2.63101Z" fill="#FFC222"/>
<path d="M24.689 18.9716C23.8195 18.5985 23.0775 17.9809 22.5532 17.1939C22.0228 16.3975 21.757 15.4174 21.7559 14.2536H24.9436C24.9436 15.7149 25.8519 16.4455 27.6685 16.4455C28.4528 16.4455 29.0461 16.2956 29.4483 15.9958C29.6359 15.8654 29.7887 15.6911 29.8933 15.4881C29.9978 15.2851 30.051 15.0596 30.0482 14.8314C30.0504 14.5796 29.9857 14.3317 29.8606 14.113C29.7355 13.8944 29.5546 13.7129 29.3362 13.587C28.664 13.1893 27.9471 12.8724 27.2004 12.643C26.2896 12.3263 25.3981 11.9565 24.5306 11.5355C23.8397 11.1794 23.2422 10.666 22.7864 10.0369C22.2928 9.3756 22.0466 8.5223 22.0478 7.47702C22.0246 6.57328 22.2779 5.68399 22.7739 4.92779C23.2516 4.21864 23.9205 3.65902 24.7033 3.31364C25.5163 2.94924 26.3983 2.76372 27.2894 2.76966C28.2217 2.76183 29.1443 2.95972 29.9912 3.34919C30.8146 3.72434 31.5091 4.33335 31.9882 5.10023C32.4889 5.8836 32.7393 6.84475 32.7393 7.98366H29.5854C29.5854 7.29213 29.3878 6.76416 28.9945 6.40506C28.6011 6.04597 28.0387 5.86642 27.2983 5.86642C26.6504 5.86642 26.1432 6.01752 25.773 6.31795C25.5976 6.45317 25.4563 6.62739 25.3602 6.82675C25.2641 7.02611 25.2159 7.24512 25.2194 7.46635C25.2127 7.71792 25.2682 7.96727 25.3809 8.19236C25.4935 8.41746 25.66 8.61137 25.8655 8.75696C26.4706 9.16803 27.1294 9.49403 27.8233 9.72581C29.0538 10.1726 29.9965 10.5453 30.6515 10.844C31.3448 11.1753 31.9498 11.6656 32.4171 12.275C32.9428 12.9269 33.2044 13.7766 33.202 14.8243C33.2336 15.7343 32.9804 16.6316 32.4776 17.3913C31.9735 18.1077 31.2769 18.6672 30.4682 19.0054C29.5846 19.3808 28.6322 19.5679 27.6721 19.5547C26.6478 19.5713 25.6315 19.3726 24.689 18.9716Z" fill="#004AAD"/>
<path d="M44.0467 7.7027V19.2364H41.0583V18.0365C40.3962 19.0486 39.3491 19.5546 37.9169 19.5546C37.2327 19.5687 36.5591 19.3834 35.9787 19.0213C35.3921 18.6416 34.9269 18.1017 34.6384 17.4658C34.2983 16.7124 34.1323 15.8922 34.1525 15.0659V7.7027H37.132V14.8526C37.132 15.4843 37.3017 15.9649 37.641 16.2943C37.8155 16.4613 38.0219 16.5913 38.248 16.6765C38.474 16.7617 38.7149 16.8004 38.9563 16.7903C39.2384 16.8038 39.5202 16.7584 39.7837 16.6571C40.0473 16.5558 40.2868 16.4008 40.487 16.2019C40.8726 15.8108 41.0655 15.1999 41.0655 14.3691V7.7027H44.0467Z" fill="#004AAD"/>
<path d="M53.7985 8.57913C54.4998 9.37791 54.8504 10.47 54.8504 11.8554V19.2364H51.8781V12.0883C51.8781 11.4578 51.7084 10.9772 51.369 10.6466C51.1944 10.48 50.9879 10.3502 50.7619 10.265C50.5359 10.1798 50.2951 10.1409 50.0537 10.1506C49.7744 10.1374 49.4953 10.183 49.2347 10.2843C48.9741 10.3857 48.7377 10.5406 48.5409 10.739C48.1552 11.1289 47.9624 11.7316 47.9624 12.547V19.2364H44.9883V7.70272H47.9624V8.88845C48.6245 7.88938 49.6711 7.38984 51.1021 7.38984C51.6119 7.37439 52.1187 7.4732 52.5854 7.679C53.052 7.8848 53.4665 8.19237 53.7985 8.57913Z" fill="#004AAD"/>
<path d="M58.8832 6.04418V10.1507H65.0041V13.1994H58.8832V19.1494H55.6973V3.00253H65.1643V6.04418H58.8832Z" fill="#004AAD"/>
<path d="M66.0205 3.00253H68.9999V6.00151H66.0205V3.00253ZM66.0205 7.62455H68.9999V19.1565H66.0205V7.62455Z" fill="#004AAD"/>
</svg>
